<?xml version="1.0" standalone="no"?>
<!DOCTYPE svg PUBLIC "-//W3C//DTD SVG 20010904//EN"
 "http://www.w3.org/TR/2001/REC-SVG-20010904/DTD/svg10.dtd">
<svg version="1.0" xmlns="http://www.w3.org/2000/svg"
 width="697.000000pt" height="581.000000pt" viewBox="0 0 697.000000 581.000000"
 preserveAspectRatio="xMidYMid meet">
<metadata>
Created by potrace 1.16, written by Peter Selinger 2001-2019
</metadata>
<g transform="translate(0.000000,581.000000) scale(0.100000,-0.100000)"
fill="#000000" stroke="none">
<path d="M2774 5264 c4 -9 150 -266 326 -571 176 -305 318 -558 316 -562 -3
-4 -34 -11 -68 -14 -122 -12 -276 -65 -396 -137 -279 -165 -509 -456 -754
-955 -87 -176 -137 -290 -403 -920 -120 -284 -252 -555 -339 -699 -185 -306
-377 -474 -581 -507 l-75 -12 0 -273 0 -274 28 0 c62 0 197 22 279 46 121 35
241 96 353 180 297 224 535 598 849 1339 68 160 127 294 132 299 4 5 113 -93
251 -226 l242 -236 42 37 c23 20 150 141 283 269 l240 233 281 -271 281 -271
248 240 248 240 128 -302 c137 -321 313 -682 409 -835 238 -382 500 -611 799
-696 82 -24 217 -46 279 -46 l28 0 0 274 0 273 -75 12 c-204 33 -396 200 -581
507 -88 145 -220 417 -339 699 -260 615 -316 744 -403 920 -245 499 -475 790
-754 955 -120 72 -274 125 -396 137 -34 3 -65 10 -68 14 -2 5 72 140 165 301
l169 293 1141 3 1141 2 0 275 0 275 -1716 0 c-1579 0 -1716 -1 -1710 -16z
m846 -1699 c225 -60 421 -267 631 -669 l72 -138 -128 -122 c-71 -66 -132 -121
-135 -121 -4 0 -130 118 -280 263 -151 144 -277 262 -282 262 -4 0 -132 -120
-283 -266 l-275 -266 -130 123 c-71 68 -130 125 -130 127 0 18 153 295 213
386 160 242 304 369 472 417 74 22 183 23 255 4z"/>
</g>
</svg>
