<?xml version="1.0"?>
<svg xmlns="http://www.w3.org/2000/svg" id="Layer_2" data-name="Layer 2" viewBox="0 0 128 128" width="512" height="512"><title>AUTOMATION</title><path d="M126.25,54.083H114.86a51.9,51.9,0,0,0-7.853-19.065l8.122-8.124a1.749,1.749,0,0,0,0-2.475L103.581,12.87a1.749,1.749,0,0,0-2.475,0l-8.095,8.095a51.9,51.9,0,0,0-19.095-7.938V1.75A1.75,1.75,0,0,0,72.167,0H55.833a1.75,1.75,0,0,0-1.75,1.75V13.026a51.894,51.894,0,0,0-19.094,7.938l-8.1-8.095a1.749,1.749,0,0,0-2.475,0L12.87,24.419a1.749,1.749,0,0,0,0,2.475l8.123,8.124a51.894,51.894,0,0,0-7.854,19.065H1.75A1.75,1.75,0,0,0,0,55.833V72.167a1.75,1.75,0,0,0,1.75,1.75H13.2a51.935,51.935,0,0,0,7.909,18.952l-8.237,8.237a1.749,1.749,0,0,0,0,2.475L24.419,115.13a1.749,1.749,0,0,0,2.475,0l8.265-8.265a51.934,51.934,0,0,0,18.924,7.824V126.25a1.75,1.75,0,0,0,1.75,1.75H72.167a1.75,1.75,0,0,0,1.75-1.75V114.689a51.927,51.927,0,0,0,18.923-7.824l8.267,8.265a1.749,1.749,0,0,0,2.475,0l11.549-11.549a1.749,1.749,0,0,0,0-2.475l-8.236-8.237A51.931,51.931,0,0,0,114.8,73.917H126.25a1.75,1.75,0,0,0,1.75-1.75V55.833A1.75,1.75,0,0,0,126.25,54.083ZM124.5,70.417H113.342a1.749,1.749,0,0,0-1.726,1.462A48.33,48.33,0,0,1,103.2,92.047a1.749,1.749,0,0,0,.183,2.26l8.036,8.037-9.074,9.074-8.062-8.061a1.75,1.75,0,0,0-2.255-.187A48.345,48.345,0,0,1,71.884,111.5a1.75,1.75,0,0,0-1.467,1.727V124.5H57.583V113.226a1.749,1.749,0,0,0-1.466-1.727,48.356,48.356,0,0,1-20.146-8.328,1.749,1.749,0,0,0-2.254.187l-8.061,8.061-9.074-9.074,8.036-8.037a1.749,1.749,0,0,0,.183-2.26,48.339,48.339,0,0,1-8.417-20.169,1.75,1.75,0,0,0-1.726-1.461H3.5V57.583H14.607a1.75,1.75,0,0,0,1.728-1.472A48.321,48.321,0,0,1,24.687,35.83a1.75,1.75,0,0,0-.187-2.255l-7.918-7.919,9.074-9.074,7.895,7.895a1.752,1.752,0,0,0,2.26.183,48.316,48.316,0,0,1,20.306-8.442,1.749,1.749,0,0,0,1.466-1.727V3.5H70.417V14.49a1.75,1.75,0,0,0,1.467,1.727,48.318,48.318,0,0,1,20.3,8.442,1.751,1.751,0,0,0,2.261-.183l7.895-7.895,9.074,9.074L103.5,33.575a1.75,1.75,0,0,0-.187,2.255,48.312,48.312,0,0,1,8.352,20.281,1.749,1.749,0,0,0,1.728,1.472H124.5Z"/><path d="M80.85,62.435,53.413,48.716a1.751,1.751,0,0,0-2.533,1.565V77.719a1.75,1.75,0,0,0,2.533,1.565L80.85,65.565a1.75,1.75,0,0,0,0-3.131ZM54.38,74.887V53.113L76.154,64Z"/><path d="M91.282,36.718a1.731,1.731,0,0,0-.183-.15,38.5,38.5,0,0,0-54.2,0,1.163,1.163,0,0,0-.328.328,38.5,38.5,0,0,0,0,54.2,1.163,1.163,0,0,0,.328.328,38.5,38.5,0,0,0,54.2,0,1.184,1.184,0,0,0,.334-.334,38.5,38.5,0,0,0,0-54.2A1.731,1.731,0,0,0,91.282,36.718ZM90,87.527,85.54,83.065A28.66,28.66,0,0,0,92.726,65.75h6.313A34.946,34.946,0,0,1,90,87.527ZM28.961,65.75h6.313a28.66,28.66,0,0,0,7.186,17.315L38,87.527A34.946,34.946,0,0,1,28.961,65.75ZM38,40.473l4.462,4.462A28.66,28.66,0,0,0,35.274,62.25H28.961A34.946,34.946,0,0,1,38,40.473ZM64,89.284A25.284,25.284,0,1,1,89.284,64,25.313,25.313,0,0,1,64,89.284ZM83.065,42.46A28.66,28.66,0,0,0,65.75,35.274V28.961A34.946,34.946,0,0,1,87.527,38ZM62.25,35.274a28.66,28.66,0,0,0-17.315,7.187L40.473,38A34.946,34.946,0,0,1,62.25,28.961ZM44.935,85.539A28.66,28.66,0,0,0,62.25,92.726v6.313A34.946,34.946,0,0,1,40.473,90ZM65.75,92.726A28.66,28.66,0,0,0,83.065,85.54L87.527,90A34.946,34.946,0,0,1,65.75,99.039ZM92.726,62.25A28.66,28.66,0,0,0,85.54,44.935L90,40.473A34.946,34.946,0,0,1,99.039,62.25Z"/></svg>
