dot<?xml version="1.0" standalone="no"?>
<!DOCTYPE svg PUBLIC "-//W3C//DTD SVG 20010904//EN"
 "http://www.w3.org/TR/2001/REC-SVG-20010904/DTD/svg10.dtd">
<svg version="1.0" xmlns="http://www.w3.org/2000/svg"
 width="540.000000pt" height="142.000000pt" viewBox="0 0 540.000000 142.000000"
 preserveAspectRatio="xMidYMid meet">

<g transform="translate(0.000000,142.000000) scale(0.100000,-0.100000)"
fill="#000000" stroke="none">
<path d="M641 1305 c-230 -52 -403 -222 -462 -453 -45 -178 -2 -371 117 -522
57 -73 118 -121 209 -166 333 -164 734 12 848 371 31 98 31 252 0 350 -60 191
-215 347 -403 406 -85 27 -225 33 -309 14z"/>
<path d="M2574 1300 c-228 -60 -401 -239 -449 -466 -92 -434 311 -824 737
-715 323 83 520 395 453 716 -70 334 -416 551 -741 465z"/>
<path d="M4540 1304 c-175 -37 -333 -163 -416 -329 -191 -386 76 -841 512
-872 399 -29 724 361 625 749 -83 325 -397 522 -721 452z"/>
</g>
</svg>
