<?xml version="1.0"?>
<svg width="12" height="12" viewBox="0 0 12 12" fill="none" xmlns="http://www.w3.org/2000/svg">
    <path
        d="M5 4.5C4.725 4.5 4.5 4.725 4.5 5C4.5 5.275 4.725 5.5 5 5.5C5.275 5.5 5.5 5.275 5.5 5C5.5 4.725 5.275 4.5 5 4.5ZM5 6.5C4.725 6.5 4.5 6.725 4.5 7C4.5 7.275 4.725 7.5 5 7.5C5.275 7.5 5.5 7.275 5.5 7C5.5 6.725 5.275 6.5 5 6.5ZM3.5 4.75C3.36 4.75 3.25 4.86 3.25 5C3.25 5.14 3.36 5.25 3.5 5.25C3.64 5.25 3.75 5.14 3.75 5C3.75 4.86 3.64 4.75 3.5 4.75ZM5 8.25C4.86 8.25 4.75 8.36 4.75 8.5C4.75 8.64 4.86 8.75 5 8.75C5.14 8.75 5.25 8.64 5.25 8.5C5.25 8.36 5.14 8.25 5 8.25ZM3.5 6.75C3.36 6.75 3.25 6.86 3.25 7C3.25 7.14 3.36 7.25 3.5 7.25C3.64 7.25 3.75 7.14 3.75 7C3.75 6.86 3.64 6.75 3.5 6.75ZM5 3.75C5.14 3.75 5.25 3.64 5.25 3.5C5.25 3.36 5.14 3.25 5 3.25C4.86 3.25 4.75 3.36 4.75 3.5C4.75 3.64 4.86 3.75 5 3.75ZM7 4.5C6.725 4.5 6.5 4.725 6.5 5C6.5 5.275 6.725 5.5 7 5.5C7.275 5.5 7.5 5.275 7.5 5C7.5 4.725 7.275 4.5 7 4.5ZM7 3.75C7.14 3.75 7.25 3.64 7.25 3.5C7.25 3.36 7.14 3.25 7 3.25C6.86 3.25 6.75 3.36 6.75 3.5C6.75 3.64 6.86 3.75 7 3.75ZM8.5 6.75C8.36 6.75 8.25 6.86 8.25 7C8.25 7.14 8.36 7.25 8.5 7.25C8.64 7.25 8.75 7.14 8.75 7C8.75 6.86 8.64 6.75 8.5 6.75ZM8.5 4.75C8.36 4.75 8.25 4.86 8.25 5C8.25 5.14 8.36 5.25 8.5 5.25C8.64 5.25 8.75 5.14 8.75 5C8.75 4.86 8.64 4.75 8.5 4.75ZM6 1C3.24 1 1 3.24 1 6C1 8.76 3.24 11 6 11C8.76 11 11 8.76 11 6C11 3.24 8.76 1 6 1ZM6 10C3.79 10 2 8.21 2 6C2 3.79 3.79 2 6 2C8.21 2 10 3.79 10 6C10 8.21 8.21 10 6 10ZM7 8.25C6.86 8.25 6.75 8.36 6.75 8.5C6.75 8.64 6.86 8.75 7 8.75C7.14 8.75 7.25 8.64 7.25 8.5C7.25 8.36 7.14 8.25 7 8.25ZM7 6.5C6.725 6.5 6.5 6.725 6.5 7C6.5 7.275 6.725 7.5 7 7.5C7.275 7.5 7.5 7.275 7.5 7C7.5 6.725 7.275 6.5 7 6.5Z"
        fill="#FD687D" />
</svg>
