<svg xmlns="http://www.w3.org/2000/svg" viewBox="0 0 160.98 94.24">
    <title>06</title>
    <g id="Objects">
        <path class="cls-1" d="M469,325.79a4.57,4.57,0,1,0,4.57-4.56A4.56,4.56,0,0,0,469,325.79Z"
            transform="translate(-332.75 -301.64)" />
        <path class="cls-1"
            d="M480.16,327.08l-1.92,3.23s8.67,10,10.54,9.89,5.51-6.21,4.64-7.79S480.16,327.08,480.16,327.08Z"
            transform="translate(-332.75 -301.64)" />
        <path class="cls-1"
            d="M488.73,311.3c-1.8.08-10.68,9.49-10.68,9.49l2,3.16s12.81-3.31,13.56-5S490.53,311.22,488.73,311.3Z"
            transform="translate(-332.75 -301.64)" />
        <path class="cls-1"
            d="M453.47,332.45c-.87,1.58,2.77,7.7,4.64,7.8s10.54-9.9,10.54-9.9l-1.92-3.22S454.34,330.88,453.47,332.45Z"
            transform="translate(-332.75 -301.64)" />
        <path class="cls-1"
            d="M466.81,324l2-3.16s-8.89-9.41-10.69-9.49-5.65,5.92-4.9,7.63S466.81,324,466.81,324Z"
            transform="translate(-332.75 -301.64)" />
        <path class="cls-1"
            d="M475,319.48s4.15-12.56,3.11-14.12-8.16-1.55-9.07,0,2.2,14.12,2.2,14.12Z"
            transform="translate(-332.75 -301.64)" />
        <path class="cls-1"
            d="M489.31,395.88V370h-4.42l-7.38-26a108.9,108.9,0,0,0-2.32-12.11h-3.76a104.38,104.38,0,0,0-3.1,11.51L460.78,370h-4.89v19.54H448.1V349.88h11l-48.49-43.16-48.51,43.16h11v39.66h-4V353.88H351.57l28.85-25.66v-6.58c0-11-8.25-20-18.34-20s-18.33,9-18.33,20v67.9h-11v6.34Zm-19.52-49.05a13.41,13.41,0,0,0,6.11,0l1.71,6h-9.55ZM467.47,355H478.2l2,7h-14.7ZM464.9,364h15.87l1.7,6H463.21Zm-52.72,25.5,10.36-10.81,10.69,10.81Zm23.08-2.21-10.65-10.77,10.65-11.11Zm-3.33-22.74-9.43,9.84-9.72-9.84Zm-21.34,2.06,9.84,10-9.84,10.26Zm-30-10.45h21.18v13.33H380.54Z"
            transform="translate(-332.75 -301.64)" />
    </g>
</svg>
