<?xml version="1.0" encoding="iso-8859-1"?>
<svg width="10" height="12" viewBox="0 0 10 12" fill="none" xmlns="http://www.w3.org/2000/svg">
<g clip-path="url(#clip0)">
<path d="M0 7.36471C0 6.81176 0.15098 6.17745 0.452941 5.46176C0.754902 4.74608 1.14314 4.05294 1.61765 3.38235C2.59804 2.08824 3.44706 1.11176 4.16471 0.452941L4.63529 0C4.79216 0.164706 4.96471 0.315686 5.15294 0.452941C5.41176 0.715686 5.80588 1.15196 6.33529 1.76176C6.86471 2.37157 7.31765 2.92549 7.69412 3.42353C8.14118 4.05882 8.51961 4.73824 8.82941 5.46176C9.13922 6.18529 9.29412 6.81961 9.29412 7.36471C9.29412 7.99216 9.17255 8.59118 8.92941 9.16177C8.68627 9.73235 8.35784 10.2255 7.94412 10.6412C7.53039 11.0569 7.03529 11.3873 6.45882 11.6324C5.88235 11.8775 5.27451 12 4.63529 12C4.00784 12 3.40882 11.8814 2.83824 11.6441C2.26765 11.4069 1.77451 11.0833 1.35882 10.6735C0.943137 10.2637 0.612745 9.77157 0.367647 9.19706C0.122549 8.62255 0 8.01176 0 7.36471ZM1.41765 5.52353C1.41765 6.0451 1.52745 6.46078 1.74706 6.77059C1.96667 7.08039 2.3 7.23529 2.74706 7.23529C3.19804 7.23529 3.53431 7.08137 3.75588 6.77353C3.97745 6.46569 4.0902 6.04902 4.09412 5.52353C4.0902 4.99804 3.97745 4.58039 3.75588 4.27059C3.53431 3.96078 3.19804 3.80588 2.74706 3.80588C2.3 3.80588 1.96667 3.96078 1.74706 4.27059C1.52745 4.58039 1.41765 4.99804 1.41765 5.52353ZM2.40588 5.52353C2.40588 5.42941 2.40686 5.35686 2.40882 5.30588C2.41078 5.2549 2.41471 5.18627 2.42059 5.1C2.42647 5.01373 2.43627 4.94608 2.45 4.89706C2.46373 4.84804 2.48235 4.79706 2.50588 4.74412C2.52941 4.69118 2.56176 4.65294 2.60294 4.62941C2.64412 4.60588 2.69216 4.59412 2.74706 4.59412C2.83333 4.59412 2.90196 4.61961 2.95294 4.67059C3.00392 4.72157 3.0402 4.80196 3.06176 4.91176C3.08333 5.02157 3.09608 5.11569 3.1 5.19412C3.10392 5.27255 3.10588 5.38235 3.10588 5.52353C3.10588 5.66471 3.10392 5.77353 3.1 5.85C3.09608 5.92647 3.08333 6.01961 3.06176 6.12941C3.0402 6.23922 3.00392 6.31961 2.95294 6.37059C2.90196 6.42157 2.83333 6.44706 2.74706 6.44706C2.69216 6.44706 2.64412 6.43529 2.60294 6.41176C2.56176 6.38824 2.52941 6.35 2.50588 6.29706C2.48235 6.24412 2.46373 6.19314 2.45 6.14412C2.43627 6.0951 2.42647 6.02745 2.42059 5.94118C2.41471 5.8549 2.41078 5.78725 2.40882 5.73824C2.40686 5.68922 2.40588 5.61765 2.40588 5.52353ZM2.77059 10.3882H3.6L6.72941 3.64706H5.88235L2.77059 10.3882ZM5.47059 8.51176C5.47843 9.03726 5.59314 9.4549 5.81471 9.76471C6.03627 10.0745 6.37059 10.2294 6.81765 10.2294C7.26863 10.2294 7.60294 10.0755 7.82059 9.76765C8.03823 9.4598 8.14902 9.04118 8.15294 8.51176C8.14902 7.98627 8.03823 7.56961 7.82059 7.26177C7.60294 6.95392 7.26863 6.8 6.81765 6.8C6.37059 6.8 6.03627 6.95392 5.81471 7.26177C5.59314 7.56961 5.47843 7.98627 5.47059 8.51176ZM6.45882 8.51176C6.45882 8.37059 6.46078 8.26176 6.46471 8.18529C6.46863 8.10882 6.48137 8.01569 6.50294 7.90588C6.52451 7.79608 6.56078 7.71569 6.61176 7.66471C6.66274 7.61373 6.73137 7.58824 6.81765 7.58824C6.87647 7.58824 6.92647 7.6 6.96765 7.62353C7.00882 7.64706 7.04216 7.68627 7.06765 7.74118C7.09314 7.79608 7.11373 7.84608 7.12941 7.89118C7.1451 7.93627 7.1549 8.00392 7.15882 8.09412L7.16765 8.29706L7.17059 8.51176C7.17059 8.61373 7.16961 8.68725 7.16765 8.73235L7.15882 8.93529L7.12941 9.13824L7.06765 9.28824L6.96765 9.40588L6.81765 9.44118C6.73137 9.44118 6.66274 9.41569 6.61176 9.36471C6.56078 9.31373 6.52451 9.23333 6.50294 9.12353C6.48137 9.01373 6.46863 8.91961 6.46471 8.84118C6.46078 8.76274 6.45882 8.65294 6.45882 8.51176Z" fill="#FD687D"/>
</g>
<defs>
<clipPath id="clip0">
<rect width="9.29412" height="12" fill="white"/>
</clipPath>
</defs>
</svg>
