<?xml version="1.0" encoding="iso-8859-1"?>
<svg width="12" height="12" viewBox="0 0 12 12" fill="none" xmlns="http://www.w3.org/2000/svg">
<path d="M6 8.76923C7.5294 8.76923 8.76923 7.5294 8.76923 6C8.76923 4.4706 7.5294 3.23077 6 3.23077C4.47059 3.23077 3.23077 4.4706 3.23077 6C3.23077 7.5294 4.47059 8.76923 6 8.76923Z" fill="#FD687D"/>
<path d="M6 1.84615C5.87759 1.84615 5.7602 1.79753 5.67364 1.71097C5.58709 1.62442 5.53846 1.50702 5.53846 1.38462V0.461538C5.53846 0.339131 5.58709 0.221737 5.67364 0.135181C5.7602 0.0486262 5.87759 0 6 0C6.12241 0 6.2398 0.0486262 6.32636 0.135181C6.41291 0.221737 6.46154 0.339131 6.46154 0.461538V1.38462C6.46154 1.50702 6.41291 1.62442 6.32636 1.71097C6.2398 1.79753 6.12241 1.84615 6 1.84615ZM6 12C5.87759 12 5.7602 11.9514 5.67364 11.8648C5.58709 11.7783 5.53846 11.6609 5.53846 11.5385V10.6154C5.53846 10.493 5.58709 10.3756 5.67364 10.289C5.7602 10.2025 5.87759 10.1538 6 10.1538C6.12241 10.1538 6.2398 10.2025 6.32636 10.289C6.41291 10.3756 6.46154 10.493 6.46154 10.6154V11.5385C6.46154 11.6609 6.41291 11.7783 6.32636 11.8648C6.2398 11.9514 6.12241 12 6 12ZM1.38462 6.46154H0.461538C0.339131 6.46154 0.221737 6.41291 0.135181 6.32636C0.0486262 6.2398 0 6.12241 0 6C0 5.87759 0.0486262 5.7602 0.135181 5.67364C0.221737 5.58709 0.339131 5.53846 0.461538 5.53846H1.38462C1.50702 5.53846 1.62442 5.58709 1.71097 5.67364C1.79753 5.7602 1.84615 5.87759 1.84615 6C1.84615 6.12241 1.79753 6.2398 1.71097 6.32636C1.62442 6.41291 1.50702 6.46154 1.38462 6.46154ZM11.5385 6.46154H10.6154C10.493 6.46154 10.3756 6.41291 10.289 6.32636C10.2025 6.2398 10.1538 6.12241 10.1538 6C10.1538 5.87759 10.2025 5.7602 10.289 5.67364C10.3756 5.58709 10.493 5.53846 10.6154 5.53846H11.5385C11.6609 5.53846 11.7783 5.58709 11.8648 5.67364C11.9514 5.7602 12 5.87759 12 6C12 6.12241 11.9514 6.2398 11.8648 6.32636C11.7783 6.41291 11.6609 6.46154 11.5385 6.46154ZM2.08154 10.38C1.9598 10.3783 1.84368 10.3285 1.75846 10.2415C1.6725 10.1551 1.62425 10.0381 1.62425 9.91615C1.62425 9.79422 1.6725 9.67724 1.75846 9.59077L2.40923 8.93538C2.49614 8.84848 2.61401 8.79965 2.73692 8.79965C2.85983 8.79965 2.97771 8.84848 3.06462 8.93538C3.15153 9.02229 3.20035 9.14017 3.20035 9.26308C3.20035 9.38599 3.15153 9.50386 3.06462 9.59077L2.40923 10.2415C2.36649 10.2851 2.31551 10.3198 2.25926 10.3436C2.20301 10.3674 2.1426 10.3797 2.08154 10.38ZM9.26308 3.19846C9.20234 3.19881 9.14212 3.18717 9.08589 3.1642C9.02966 3.14123 8.97851 3.10739 8.93538 3.06462C8.89213 3.02171 8.85779 2.97066 8.83436 2.91442C8.81093 2.85818 8.79886 2.79785 8.79886 2.73692C8.79886 2.67599 8.81093 2.61567 8.83436 2.55943C8.85779 2.50318 8.89213 2.45214 8.93538 2.40923L9.59077 1.75846C9.67906 1.68285 9.79264 1.64334 9.90879 1.64783C10.025 1.65231 10.1351 1.70047 10.2173 1.78266C10.2995 1.86486 10.3477 1.97505 10.3522 2.09121C10.3567 2.20736 10.3172 2.32094 10.2415 2.40923L9.59077 3.06462C9.54764 3.10739 9.4965 3.14123 9.44026 3.1642C9.38403 3.18717 9.32382 3.19881 9.26308 3.19846ZM9.91846 10.38C9.8574 10.3797 9.79699 10.3674 9.74074 10.3436C9.68449 10.3198 9.63351 10.2851 9.59077 10.2415L8.93538 9.59077C8.89235 9.54774 8.85822 9.49665 8.83493 9.44042C8.81164 9.3842 8.79965 9.32393 8.79965 9.26308C8.79965 9.20222 8.81164 9.14196 8.83493 9.08573C8.85822 9.02951 8.89235 8.97842 8.93538 8.93538C8.97842 8.89235 9.02951 8.85822 9.08573 8.83493C9.14196 8.81164 9.20222 8.79965 9.26308 8.79965C9.32393 8.79965 9.3842 8.81164 9.44042 8.83493C9.49665 8.85822 9.54774 8.89235 9.59077 8.93538L10.2415 9.59077C10.3275 9.67724 10.3758 9.79422 10.3758 9.91615C10.3758 10.0381 10.3275 10.1551 10.2415 10.2415C10.1563 10.3285 10.0402 10.3783 9.91846 10.38ZM2.73692 3.19846C2.67618 3.19881 2.61597 3.18717 2.55974 3.1642C2.5035 3.14123 2.45236 3.10739 2.40923 3.06462L1.75846 2.40923C1.68285 2.32094 1.64334 2.20736 1.64783 2.09121C1.65231 1.97505 1.70047 1.86486 1.78266 1.78266C1.86486 1.70047 1.97505 1.65231 2.09121 1.64783C2.20736 1.64334 2.32094 1.68285 2.40923 1.75846L3.06462 2.40923C3.10787 2.45214 3.14221 2.50318 3.16564 2.55943C3.18907 2.61567 3.20114 2.67599 3.20114 2.73692C3.20114 2.79785 3.18907 2.85818 3.16564 2.91442C3.14221 2.97066 3.10787 3.02171 3.06462 3.06462C3.02149 3.10739 2.97034 3.14123 2.91411 3.1642C2.85788 3.18717 2.79766 3.19881 2.73692 3.19846Z" fill="#FD687D"/>
</svg>
