<?xml version="1.0" standalone="no"?>
<!DOCTYPE svg PUBLIC "-//W3C//DTD SVG 20010904//EN"
 "http://www.w3.org/TR/2001/REC-SVG-20010904/DTD/svg10.dtd">
<svg version="1.0" xmlns="http://www.w3.org/2000/svg"
 width="225.000000pt" height="225.000000pt" viewBox="0 0 225.000000 225.000000"
 preserveAspectRatio="xMidYMid meet">
<metadata>
Created by potrace 1.16, written by Peter Selinger 2001-2019
</metadata>
<g transform="translate(0.000000,225.000000) scale(0.100000,-0.100000)"
fill="#000000" stroke="none">
<path d="M830 1405 l0 -145 50 0 50 0 0 -109 0 -110 33 -3 32 -3 3 -337 2
-338 -180 0 -181 0 3 93 c3 79 5 92 20 89 12 -2 15 3 11 19 -3 11 -12 23 -19
26 -15 6 -20 119 -6 138 8 12 62 16 62 4 0 -4 -10 -10 -22 -12 -17 -3 -15 -5
9 -6 17 0 35 4 38 9 3 6 18 10 32 10 26 0 51 24 86 84 11 17 12 23 4 13 -11
-13 -17 -15 -22 -6 -4 6 -1 15 6 20 11 7 10 9 -3 9 -10 0 -18 -3 -19 -7 0 -5
-2 -16 -4 -25 -2 -11 2 -15 12 -11 13 5 13 2 4 -15 -6 -11 -16 -24 -23 -28 -6
-4 -8 -3 -5 4 13 20 -4 44 -27 38 -12 -3 -27 -1 -35 3 -11 7 -9 11 9 21 12 6
20 14 17 16 -5 5 -67 -25 -68 -34 -5 -41 -4 -50 3 -46 5 4 7 12 5 18 -3 7 -2
18 2 25 5 7 8 -5 8 -27 0 -36 -2 -38 -29 -37 -16 1 -34 8 -39 16 -12 19 -12
129 0 129 5 0 24 12 41 27 26 21 35 24 50 15 14 -9 22 -6 39 14 27 31 27 40
-4 48 -27 7 -64 -17 -46 -29 6 -3 13 1 18 9 6 11 13 12 23 6 10 -6 11 -10 3
-10 -7 0 -10 -7 -7 -15 7 -18 0 -18 -46 0 -19 7 -29 14 -21 14 8 1 12 4 9 7
-9 9 -48 -15 -48 -29 0 -8 4 -7 10 3 5 8 12 11 16 7 10 -10 -17 -39 -32 -33
-9 3 -11 0 -7 -11 4 -9 2 -14 -3 -10 -6 3 -16 2 -24 -4 -9 -5 -10 -9 -3 -9 8
0 11 -42 11 -145 0 -80 -4 -145 -8 -145 -4 0 -3 -20 2 -43 5 -24 8 -77 6 -118
l-3 -74 -175 -5 c-96 -3 -173 -7 -170 -9 12 -6 1673 -5 1683 1 7 4 -63 8 -155
8 l-168 0 0 90 c0 78 2 91 19 100 15 7 23 6 35 -6 9 -8 21 -12 27 -9 6 5 4 12
-8 22 -17 14 -17 14 2 8 43 -15 58 -15 26 0 -19 8 -42 14 -51 13 -34 -6 -50
21 -50 83 0 32 4 60 10 64 6 4 6 15 0 31 -14 35 -13 134 1 134 16 0 59 36 52
44 -9 8 8 6 32 -4 17 -7 17 -9 3 -9 -10 -1 -18 -5 -18 -11 0 -16 7 -12 45 22
27 23 33 33 23 39 -10 7 -10 9 2 9 27 1 -12 20 -40 20 -20 0 -22 -2 -10 -11
12 -9 10 -10 -8 -6 -15 4 -22 1 -19 -6 2 -7 18 -11 36 -11 34 2 37 -1 19 -20
-11 -12 -17 -11 -40 2 -16 9 -28 20 -28 24 0 4 -5 8 -11 8 -6 0 -8 -7 -5 -16
4 -12 2 -15 -9 -10 -18 7 -20 -5 -3 -22 9 -9 9 -15 -1 -24 -10 -11 -11 -10 -6
5 10 24 -8 21 -24 -4 -9 -16 -13 -64 -13 -173 0 -131 -2 -148 -14 -131 -8 10
-14 15 -14 9 0 -5 7 -17 14 -27 9 -12 14 -52 15 -122 l2 -105 -191 0 -190 0 0
340 0 340 35 0 35 0 -2 193 -3 192 -190 0 -190 0 -3 -78 c-3 -74 -4 -78 -25
-75 -21 3 -22 7 -25 141 l-3 137 -24 0 -25 0 0 -145z m475 -175 l0 -175 -177
-3 c-98 -1 -179 1 -179 5 -1 5 -2 86 -3 181 l-3 172 181 -2 181 -3 0 -175z
m-254 -237 c1 -27 2 -134 3 -239 1 -174 3 -194 20 -213 25 -27 77 -28 101 -1
16 18 19 44 22 198 6 245 11 302 29 302 12 0 14 -51 12 -337 l-3 -338 -110 0
-110 0 -3 338 c-2 332 -2 337 18 337 17 0 20 -7 21 -47z m81 -15 c3 -57 5 -63
26 -66 22 -3 22 -5 22 -177 0 -168 -1 -174 -22 -189 -29 -20 -47 -20 -70 1
-16 15 -18 36 -18 255 l0 238 30 0 c29 0 29 -1 32 -62z"/>
</g>
</svg>
