<svg width="189" height="95" viewBox="0 0 189 95" fill="none" xmlns="http://www.w3.org/2000/svg">
<path d="M11.7432 56.6211H29.9609C34.1081 56.5788 38.0225 55.944 41.7041 54.7168C45.4281 53.4896 48.6865 51.7122 51.4795 49.3848C54.2725 47.0573 56.473 44.2008 58.0811 40.8154C59.7314 37.3877 60.5566 33.4521 60.5566 29.0088C60.5566 24.5654 59.7314 20.6299 58.0811 17.2021C56.473 13.7744 54.2725 10.8968 51.4795 8.56934C48.6865 6.24186 45.4281 4.46452 41.7041 3.2373C38.0225 2.01009 34.1081 1.35417 29.9609 1.26953H0V93.6914H11.7432V56.6211ZM11.7432 46.9727V10.918H29.9609C32.6693 10.9603 35.166 11.4046 37.4512 12.251C39.7786 13.0973 41.7887 14.3034 43.4814 15.8691C45.1318 17.4349 46.4225 19.3392 47.3535 21.582C48.3268 23.8249 48.8135 26.3428 48.8135 29.1357C48.8135 31.9287 48.3268 34.4255 47.3535 36.626C46.4225 38.7842 45.1107 40.625 43.418 42.1484C41.7253 43.6719 39.7363 44.8568 37.4512 45.7031C35.166 46.5072 32.6693 46.9303 29.9609 46.9727H11.7432Z" fill="white"/>
<path d="M106.794 69.7607L114.094 93.6914H125.773L96.4473 1.26953H86.6084L56.7744 93.6914H68.5176L75.9443 69.7607H106.794ZM79.1182 59.541L91.4961 19.4238L103.684 59.541H79.1182Z" fill="white"/>
<path d="M175.806 70.332C175.806 72.8711 175.256 75.0716 174.155 76.9336C173.055 78.7533 171.637 80.2555 169.902 81.4404C168.167 82.6676 166.178 83.5775 163.936 84.1699C161.735 84.7201 159.492 84.9951 157.207 84.9951C154.329 84.9951 151.663 84.6143 149.209 83.8525C146.797 83.0485 144.66 81.8636 142.798 80.2979C140.936 78.7744 139.412 76.9124 138.228 74.7119C137.043 72.4691 136.26 69.9089 135.879 67.0312H123.882C124.009 71.0091 124.876 74.6273 126.484 77.8857C128.135 81.1019 130.356 83.916 133.149 86.3281C136.281 89.1211 139.963 91.2581 144.194 92.7393C148.468 94.2204 152.806 94.9609 157.207 94.9609C160.889 94.9609 164.57 94.4531 168.252 93.4375C171.934 92.3796 175.234 90.8138 178.154 88.7402C181.074 86.709 183.444 84.1488 185.264 81.0596C187.126 77.9704 188.057 74.3522 188.057 70.2051C188.057 66.1003 187.189 62.4821 185.454 59.3506C183.761 56.2191 181.519 53.5742 178.726 51.416C175.89 49.0885 172.759 47.1842 169.331 45.7031C165.903 44.1797 162.476 42.889 159.048 41.8311C156.974 41.1963 154.753 40.4557 152.383 39.6094C150.055 38.763 147.897 37.7051 145.908 36.4355C143.877 35.166 142.205 33.6214 140.894 31.8018C139.582 29.9398 138.905 27.6758 138.862 25.0098C138.862 22.5553 139.349 20.3971 140.322 18.5352C141.338 16.6732 142.692 15.1074 144.385 13.8379C146.035 12.5684 147.918 11.6162 150.034 10.9814C152.192 10.3467 154.393 10.0293 156.636 10.0293C159.429 10.0293 161.925 10.4736 164.126 11.3623C166.369 12.2087 168.294 13.4147 169.902 14.9805C171.51 16.5462 172.801 18.4294 173.774 20.6299C174.748 22.7881 175.404 25.2002 175.742 27.8662H187.803C187.718 23.6344 186.808 19.8047 185.073 16.377C183.338 12.9492 181.032 10.0293 178.154 7.61719C175.277 5.20508 171.976 3.3431 168.252 2.03125C164.528 0.677083 160.656 0 156.636 0C152.996 0 149.378 0.571289 145.781 1.71387C142.184 2.81413 138.968 4.44336 136.133 6.60156C133.298 8.75977 130.991 11.4046 129.214 14.5361C127.479 17.6676 126.611 21.2223 126.611 25.2002C126.611 29.1781 127.479 32.6481 129.214 35.6104C130.991 38.5303 133.276 41.0693 136.069 43.2275C138.82 45.3434 141.867 47.1631 145.21 48.6865C148.595 50.1676 151.917 51.4372 155.176 52.4951C157.419 53.2145 159.746 54.0186 162.158 54.9072C164.613 55.7959 166.855 56.8962 168.887 58.208C170.918 59.5622 172.568 61.2126 173.838 63.1592C175.15 65.1058 175.806 67.4967 175.806 70.332Z" fill="white"/>
</svg>
