<?xml version="1.0" standalone="no"?>
<!DOCTYPE svg PUBLIC "-//W3C//DTD SVG 20010904//EN"
 "http://www.w3.org/TR/2001/REC-SVG-20010904/DTD/svg10.dtd">
<svg version="1.0" xmlns="http://www.w3.org/2000/svg"
 width="256.000000pt" height="256.000000pt" viewBox="0 0 256.000000 256.000000"
 preserveAspectRatio="xMidYMid meet">

<g transform="translate(0.000000,256.000000) scale(0.100000,-0.100000)"
fill="#000000" stroke="none">
<path d="M945 2551 c-37 -16 -50 -42 -55 -115 l-5 -71 -90 -6 c-49 -3 -107
-12 -127 -21 -56 -25 -123 -92 -149 -151 l-24 -52 0 -955 0 -955 28 -57 c34
-69 91 -121 164 -148 51 -19 78 -20 593 -20 515 0 542 1 593 20 73 27 130 79
164 148 l28 57 0 955 0 955 -24 52 c-26 59 -93 126 -149 151 -20 9 -77 18
-127 21 l-90 6 -5 72 c-4 58 -10 77 -28 95 -22 23 -24 23 -350 25 -180 1 -336
-2 -347 -6z m535 -285 l0 -94 166 -4 166 -3 29 -33 29 -32 0 -921 0 -921 -29
-29 -29 -29 -532 0 -532 0 -29 29 -29 29 0 921 0 921 29 32 29 33 166 3 166 4
0 94 0 94 200 0 200 0 0 -94z"/>
<path d="M845 2058 c-11 -6 -28 -20 -37 -32 -16 -19 -18 -79 -18 -843 l0 -821
26 -31 26 -31 438 0 438 0 26 31 26 31 0 821 c0 764 -2 824 -18 843 -9 12 -27
27 -39 33 -30 15 -840 15 -868 -1z"/>
</g>
</svg>
