<?xml version="1.0" encoding="iso-8859-1"?>
<svg width="25" height="25" viewBox="0 0 25 25" fill="none" xmlns="http://www.w3.org/2000/svg">
    <path
        d="M12 0C11.8674 1.32584e-05 11.7402 0.0526962 11.6465 0.146461C11.5527 0.240227 11.5 0.367396 11.5 0.5V1.00586H9.90625C9.69777 0.426833 9.14684 0.00585938 8.5 0.00585938C7.6775 0.00585938 7 0.68336 7 1.50586C7 2.32836 7.6775 3.00586 8.5 3.00586C9.14619 3.00586 9.69728 2.58398 9.90625 2.00586H11.5V2.5C11.5 2.6326 11.5527 2.75977 11.6465 2.85354C11.7402 2.9473 11.8674 2.99999 12 3H12.5V4.00586H12C11.8674 4.00587 11.7402 4.05856 11.6465 4.15232C11.5527 4.24609 11.5 4.37326 11.5 4.50586V6.00586H10.75C9.78914 6.00586 9 6.79506 9 7.75586V8.00586H4.0957C2.38286 8.00586 1 9.42821 1 11.1621V14.5059C1.00001 14.6385 1.0527 14.7656 1.14646 14.8594C1.24023 14.9532 1.3674 15.0058 1.5 15.0059H4.5C4.6326 15.0058 4.75977 14.9532 4.85354 14.8594C4.9473 14.7656 4.99999 14.6385 5 14.5059V12.7559C5 12.3316 5.3258 12.0059 5.75 12.0059H9V12.2559C9 13.2168 9.78914 14.0059 10.75 14.0059H15.25C16.2109 14.0059 17 13.2168 17 12.2559V12.0059H21V14.5059C21 14.6385 21.0527 14.7656 21.1465 14.8594C21.2402 14.9532 21.3674 15.0058 21.5 15.0059H24.5C24.6326 15.0058 24.7598 14.9532 24.8535 14.8594C24.9473 14.7656 25 14.6385 25 14.5059V5.50586C25 5.37326 24.9473 5.24609 24.8535 5.15232C24.7598 5.05856 24.6326 5.00587 24.5 5.00586H21.5C21.3674 5.00587 21.2402 5.05856 21.1465 5.15232C21.0527 5.24609 21 5.37326 21 5.50586V8.00586H17V7.75586C17 6.79506 16.2109 6.00586 15.25 6.00586H14.5V4.50586C14.5 4.37326 14.4473 4.24609 14.3535 4.15232C14.2598 4.05856 14.1326 4.00587 14 4.00586H13.5V3H14C14.1326 2.99999 14.2598 2.9473 14.3535 2.85354C14.4473 2.75977 14.5 2.6326 14.5 2.5V2.00586H16.0938C16.3027 2.58398 16.8538 3.00586 17.5 3.00586C18.3225 3.00586 19 2.32836 19 1.50586C19 0.68336 18.3225 0.00585938 17.5 0.00585938C16.8532 0.00585938 16.3022 0.426833 16.0938 1.00586H14.5V0.5C14.5 0.367396 14.4473 0.240227 14.3535 0.146461C14.2598 0.0526962 14.1326 1.32584e-05 14 0H12ZM12.5 1H13.5V2H12.5V1ZM8.5 1.00586C8.78207 1.00586 9 1.22386 9 1.50586C9 1.78796 8.78207 2.00586 8.5 2.00586C8.21793 2.00586 8 1.78796 8 1.50586C8 1.22386 8.21793 1.00586 8.5 1.00586ZM17.5 1.00586C17.7821 1.00586 18 1.22386 18 1.50586C18 1.78796 17.7821 2.00586 17.5 2.00586C17.2179 2.00586 17 1.78796 17 1.50586C17 1.22386 17.2179 1.00586 17.5 1.00586ZM12.5 5.00586H12.9238C12.9724 5.01305 13.0217 5.01305 13.0703 5.00586H13.5V6.00586H12.5V5.00586ZM22 6.00586H24V14.0059H22V11.584C22.0086 11.5309 22.0086 11.4769 22 11.4238V8.58398C22.0086 8.53095 22.0086 8.47687 22 8.42383V6.00586ZM10.75 7.00586H11.9238C11.9724 7.01305 12.0217 7.01305 12.0703 7.00586H13.9238C13.9724 7.01305 14.0217 7.01305 14.0703 7.00586H15.25C15.6742 7.00586 16 7.33176 16 7.75586V12.2559C16 12.6801 15.6742 13.0059 15.25 13.0059H10.75C10.3258 13.0059 10 12.6801 10 12.2559V7.75586C10 7.33176 10.3258 7.00586 10.75 7.00586ZM4.0957 9.00586H9V11.0059H5.75C4.78919 11.0059 4 11.795 4 12.7559V14.0059H2V11.1621C2 9.95281 2.93199 9.00586 4.0957 9.00586ZM17 9.00586H21V11.0059H17V9.00586ZM3.01758 16.3691C3.00063 16.3689 2.98368 16.3696 2.9668 16.3711C2.83713 16.3798 2.71594 16.4386 2.62891 16.5352C2.62891 16.5352 1.98924 17.2423 1.3457 18.1309C1.02394 18.5753 0.699483 19.0654 0.447266 19.5527C0.195048 20.04 0 20.516 0 21.0117C0 22.6606 1.34959 24.0059 3 24.0059C4.65043 24.0059 6 22.6605 6 21.0117C6 20.516 5.80495 20.04 5.55273 19.5527C5.30052 19.0654 4.97606 18.5753 4.6543 18.1309C4.01076 17.2423 3.37109 16.5352 3.37109 16.5352C3.32632 16.4852 3.27195 16.4447 3.21121 16.4162C3.15048 16.3877 3.08463 16.3717 3.01758 16.3691ZM3 17.666C3.21873 17.9188 3.42417 18.1347 3.8457 18.7168C4.14894 19.1355 4.44948 19.5933 4.66602 20.0117C4.88255 20.43 5 20.8185 5 21.0117C5 22.1191 4.11094 23.0059 3 23.0059C1.88903 23.0059 1 22.1192 1 21.0117C1 20.8185 1.11745 20.43 1.33398 20.0117C1.55052 19.5933 1.85106 19.1355 2.1543 18.7168C2.57583 18.1347 2.78127 17.9188 3 17.666Z"
        fill="#FD687D" />
</svg>
