<?xml version="1.0" standalone="no"?>
<!DOCTYPE svg PUBLIC "-//W3C//DTD SVG 20010904//EN"
 "http://www.w3.org/TR/2001/REC-SVG-20010904/DTD/svg10.dtd">
<svg version="1.0" xmlns="http://www.w3.org/2000/svg"
 width="660.000000pt" height="475.000000pt" viewBox="0 0 660.000000 475.000000"
 preserveAspectRatio="xMidYMid meet">
<metadata>
Created by potrace 1.16, written by Peter Selinger 2001-2019
</metadata>
<g transform="translate(0.000000,475.000000) scale(0.100000,-0.100000)"
fill="#000000" stroke="none">
<path d="M2128 4540 c-9 -6 -37 -38 -61 -73 -52 -73 -143 -160 -225 -216 -364
-247 -917 -294 -1349 -116 -99 42 -121 43 -157 10 -20 -18 -26 -34 -26 -64 0
-51 32 -79 142 -121 566 -219 1251 -106 1642 270 l79 77 74 -73 c171 -170 418
-294 703 -355 90 -20 136 -23 325 -23 191 -1 235 2 332 22 292 59 550 191 727
371 l60 60 85 -82 c180 -173 419 -292 698 -348 136 -27 388 -36 531 -20 205
24 489 114 532 168 29 38 26 79 -10 115 -37 37 -60 35 -170 -11 -162 -69 -342
-102 -559 -102 -435 0 -823 176 -1019 462 -33 49 -48 59 -87 59 -39 0 -54 -10
-87 -59 -135 -198 -382 -354 -673 -425 -110 -27 -208 -37 -355 -37 -382 0
-706 124 -927 354 -45 47 -89 99 -97 116 -9 17 -25 35 -35 41 -24 13 -71 13
-93 0z"/>
<path d="M1771 3584 c-24 -30 -26 -46 -10 -77 16 -30 28 -37 66 -37 34 0 73
37 73 70 0 34 -39 70 -75 70 -24 0 -39 -7 -54 -26z"/>
<path d="M3864 3546 c-29 -29 -34 -41 -34 -81 0 -40 5 -52 34 -81 28 -28 41
-34 78 -34 50 0 82 18 103 60 42 82 -15 170 -111 170 -28 0 -44 -8 -70 -34z"/>
<path d="M2641 3516 c-57 -32 -68 -115 -22 -165 64 -68 181 -21 181 73 0 82
-87 132 -159 92z"/>
<path d="M5705 3426 c-48 -48 -40 -122 16 -151 85 -45 172 31 135 118 -17 42
-41 57 -91 57 -25 0 -43 -8 -60 -24z"/>
<path d="M4664 3429 c-28 -14 -54 -61 -54 -98 0 -20 10 -42 29 -63 76 -85 210
3 166 108 -22 52 -89 78 -141 53z"/>
<path d="M3453 3152 c-32 -5 -63 -49 -63 -89 0 -75 98 -113 150 -58 61 64 3
161 -87 147z"/>
<path d="M815 3115 c-32 -31 -32 -69 1 -102 20 -20 31 -24 57 -19 38 7 67 39
67 73 0 32 -42 73 -75 73 -14 0 -37 -11 -50 -25z"/>
<path d="M1440 3093 c-39 -35 -50 -95 -26 -141 48 -92 188 -75 216 26 29 106
-108 188 -190 115z"/>
<path d="M2815 2915 c-33 -32 -34 -83 -2 -113 43 -41 118 -21 131 34 20 79
-73 136 -129 79z"/>
<path d="M4925 2889 c-51 -29 -60 -85 -20 -124 46 -46 118 -23 131 41 11 56
-62 110 -111 83z"/>
<path d="M5546 2809 c-20 -16 -26 -29 -26 -59 0 -70 72 -103 126 -57 35 31 37
77 4 112 -29 31 -68 32 -104 4z"/>
<path d="M2109 2728 c-16 -18 -53 -62 -82 -98 -153 -187 -423 -325 -732 -375
-116 -19 -354 -19 -470 0 -109 17 -245 56 -340 96 -38 16 -82 29 -98 29 -67 0
-105 -101 -55 -147 31 -29 172 -85 288 -117 527 -141 1115 -14 1465 316 l93
88 32 -38 c158 -182 445 -332 755 -395 94 -19 141 -22 325 -21 184 0 230 3
320 23 291 62 523 178 703 350 l82 79 80 -77 c185 -178 441 -303 730 -357 137
-26 469 -26 600 -1 115 22 325 90 390 125 71 39 86 101 35 152 -29 29 -61 25
-178 -21 -175 -68 -289 -90 -499 -96 -268 -8 -451 27 -659 126 -174 83 -310
191 -400 317 -46 64 -59 74 -99 74 -40 0 -53 -10 -99 -74 -155 -217 -439 -375
-774 -431 -130 -22 -424 -16 -542 10 -194 43 -371 119 -500 215 -77 57 -201
184 -225 229 -31 62 -101 70 -146 19z"/>
<path d="M4710 1888 c-37 -19 -60 -72 -49 -111 29 -103 179 -83 179 24 0 70
-71 117 -130 87z"/>
<path d="M1713 1827 c-30 -28 -36 -40 -36 -75 0 -91 82 -139 164 -96 72 37 70
152 -3 190 -45 24 -84 18 -125 -19z"/>
<path d="M2933 1760 c-36 -14 -65 -69 -59 -110 16 -105 156 -128 201 -33 44
93 -45 182 -142 143z"/>
<path d="M3937 1690 c-50 -39 -42 -117 15 -146 60 -31 128 13 128 83 0 71 -85
109 -143 63z"/>
<path d="M825 1641 c-87 -38 -97 -164 -15 -206 118 -61 227 87 131 179 -30 29
-83 41 -116 27z"/>
<path d="M2251 1486 c-85 -47 -54 -186 42 -186 43 0 92 38 100 77 7 40 -16 89
-52 107 -36 19 -58 20 -90 2z"/>
<path d="M5384 1356 c-28 -28 -34 -42 -34 -76 0 -58 50 -110 105 -110 55 0
105 52 105 110 0 58 -50 110 -105 110 -29 0 -45 -8 -71 -34z"/>
<path d="M4595 1325 c-50 -49 -24 -130 46 -141 81 -13 128 89 65 142 -36 31
-80 31 -111 -1z"/>
<path d="M1470 1192 c-48 -24 -76 -81 -61 -124 26 -74 90 -104 155 -73 86 41
86 159 0 200 -41 19 -51 19 -94 -3z"/>
<path d="M3525 1127 c-27 -27 -35 -43 -35 -72 0 -29 8 -45 35 -72 32 -32 40
-35 77 -30 59 8 93 45 93 102 0 57 -34 94 -93 102 -37 5 -45 2 -77 -30z"/>
<path d="M2824 1036 c-39 -33 -39 -89 0 -122 35 -31 67 -30 105 2 48 40 41
102 -16 132 -33 18 -59 14 -89 -12z"/>
<path d="M2055 875 c-129 -163 -297 -276 -515 -349 -161 -53 -240 -67 -417
-73 -245 -8 -418 20 -624 102 -48 19 -99 35 -113 35 -66 0 -103 -101 -54 -147
46 -42 240 -111 413 -146 159 -32 470 -32 631 1 301 60 575 199 743 376 l53
57 87 -83 c180 -174 418 -292 704 -350 97 -20 141 -23 327 -22 183 0 230 3
318 22 296 64 518 175 705 352 l84 79 63 -64 c174 -176 423 -303 720 -366 91
-20 134 -23 325 -23 246 0 332 13 535 80 134 44 202 81 214 115 19 55 -20 119
-73 119 -16 0 -74 -18 -130 -41 -56 -22 -152 -52 -214 -67 -103 -24 -130 -26
-327 -27 -190 0 -227 3 -319 23 -136 31 -224 63 -343 124 -157 82 -253 165
-381 332 -24 31 -34 36 -69 36 -44 0 -52 -6 -141 -120 -151 -192 -452 -346
-761 -389 -109 -15 -334 -14 -446 4 -326 49 -619 212 -776 431 -48 67 -58 74
-109 74 -31 0 -41 -9 -110 -95z"/>
</g>
</svg>
