<?xml version="1.0" standalone="no"?>
<!DOCTYPE svg PUBLIC "-//W3C//DTD SVG 20010904//EN"
 "http://www.w3.org/TR/2001/REC-SVG-20010904/DTD/svg10.dtd">
<svg version="1.0" xmlns="http://www.w3.org/2000/svg"
 width="200.000000pt" height="200.000000pt" viewBox="0 0 200.000000 200.000000"
 preserveAspectRatio="xMidYMid meet">

<g transform="translate(0.000000,200.000000) scale(0.100000,-0.100000)"
fill="#000000" stroke="none">
<path d="M346 1444 c-275 -66 -423 -387 -299 -644 33 -69 120 -161 188 -200
101 -58 123 -60 762 -60 386 0 600 4 635 11 131 27 264 130 321 249 59 122 59
278 0 400 -33 69 -120 161 -188 200 -102 58 -122 60 -770 59 -475 -1 -602 -3
-649 -15z m1259 -65 c118 -22 218 -94 273 -196 124 -234 -12 -514 -273 -562
-80 -15 -1130 -15 -1210 0 -162 30 -283 152 -315 317 -38 193 100 395 300 438
74 16 1140 19 1225 3z"/>
<path d="M397 1290 c-134 -34 -227 -153 -227 -290 0 -166 128 -293 295 -294
117 -1 209 56 267 167 19 34 23 58 23 127 0 93 -16 136 -76 204 -60 69 -190
109 -282 86z m173 -96 c54 -29 84 -66 106 -126 18 -51 18 -72 -1 -134 -53
-180 -306 -210 -402 -47 -58 98 -28 233 64 295 50 34 58 36 127 37 45 1 69 -5
106 -25z"/>
</g>
</svg>
