<?xml version="1.0" encoding="iso-8859-1"?>
<svg width="12" height="12" viewBox="0 0 12 12" fill="none" xmlns="http://www.w3.org/2000/svg">
<path fill-rule="evenodd" clip-rule="evenodd" d="M5.69059 1.5991V6.31535C4.53865 6.99103 3.9412 8.314 4.24521 9.6127C4.57274 11.0119 5.85711 12 7.33333 12C8.80955 12 10.0939 11.0119 10.4215 9.6127C10.7255 8.314 10.128 6.99103 8.97608 6.31535V1.5991C8.97608 0.711492 8.23633 0 7.33333 0C6.43033 0 5.69059 0.711492 5.69059 1.5991ZM6.69059 1.5991C6.69059 1.27268 6.97409 1 7.33333 1C7.69257 1 7.97608 1.27268 7.97608 1.5991V6.61833C7.97608 6.81415 8.09039 6.99194 8.26854 7.07322C9.18076 7.4894 9.66678 8.44922 9.44778 9.38478C9.22752 10.3257 8.35103 11 7.33333 11C6.31564 11 5.43914 10.3257 5.21889 9.38478C4.99988 8.44922 5.48591 7.4894 6.39812 7.07322C6.57628 6.99194 6.69059 6.81415 6.69059 6.61833V1.5991ZM2 1.5H4.13333C4.40948 1.5 4.63333 1.27614 4.63333 1C4.63333 0.723857 4.40948 0.5 4.13333 0.5H2C1.72386 0.5 1.5 0.723857 1.5 1C1.5 1.27614 1.72386 1.5 2 1.5ZM4.13333 4H2C1.72386 4 1.5 3.77614 1.5 3.5C1.5 3.22386 1.72386 3 2 3H4.13333C4.40948 3 4.63333 3.22386 4.63333 3.5C4.63333 3.77614 4.40948 4 4.13333 4ZM2 6H4.13333C4.40948 6 4.63333 5.77614 4.63333 5.5C4.63333 5.22386 4.40948 5 4.13333 5H2C1.72386 5 1.5 5.22386 1.5 5.5C1.5 5.77614 1.72386 6 2 6ZM8.93333 8.5C8.93333 9.32843 8.21699 10 7.33333 10C6.44968 10 5.73333 9.32843 5.73333 8.5H8.93333Z" fill="#FD687D"/>
</svg>
