<?xml version="1.0" standalone="no"?>
<!DOCTYPE svg PUBLIC "-//W3C//DTD SVG 20010904//EN"
 "http://www.w3.org/TR/2001/REC-SVG-20010904/DTD/svg10.dtd">
<svg version="1.0" xmlns="http://www.w3.org/2000/svg"
 width="697.000000pt" height="571.000000pt" viewBox="0 0 697.000000 571.000000"
 preserveAspectRatio="xMidYMid meet">
<metadata>
Created by potrace 1.16, written by Peter Selinger 2001-2019
</metadata>
<g transform="translate(0.000000,571.000000) scale(0.100000,-0.100000)"
fill="#000000" stroke="none">
<path d="M3412 4827 c-44 -14 -118 -80 -145 -131 l-22 -41 -3 -1060 -3 -1060
-56 -35 c-114 -71 -217 -225 -243 -363 -11 -63 -15 -68 -58 -97 -52 -34 -94
-44 -161 -38 -69 7 -127 39 -228 125 -223 192 -325 242 -493 243 -159 0 -245
-44 -409 -212 -123 -126 -169 -158 -226 -158 -24 0 -25 -3 -25 -56 l0 -56 48
6 c88 13 139 47 270 180 96 98 136 132 185 155 163 78 323 37 522 -134 169
-146 246 -190 352 -201 60 -7 161 14 191 39 17 14 26 2 40 -58 18 -74 68 -166
122 -227 l47 -53 -111 -104 c-135 -127 -190 -156 -276 -148 -78 7 -132 38
-260 147 -201 173 -277 210 -442 218 -190 8 -282 -37 -450 -221 -89 -96 -163
-147 -215 -147 -21 0 -23 -4 -23 -51 l0 -52 54 6 c86 9 131 39 267 178 146
150 196 179 315 187 136 9 242 -40 415 -191 174 -150 242 -182 379 -175 110 5
162 32 285 148 49 48 105 98 124 112 35 26 35 26 70 9 84 -42 144 -56 251 -56
108 0 139 7 242 52 l56 25 49 -33 c26 -18 95 -69 153 -113 144 -109 212 -140
318 -144 92 -4 159 12 221 54 20 13 90 77 156 142 149 146 185 166 305 167
122 0 168 -25 332 -181 139 -133 220 -184 290 -184 l38 0 0 50 c0 45 -2 50
-22 50 -46 0 -113 46 -236 164 -187 178 -257 212 -426 204 -141 -6 -192 -34
-364 -201 -117 -114 -146 -137 -191 -152 -105 -35 -209 -1 -353 114 -42 32
-98 76 -127 96 l-51 37 45 51 c58 67 103 160 123 256 l16 77 55 -33 c75 -45
121 -57 216 -57 69 0 89 4 148 31 56 27 90 55 191 156 151 153 202 182 316
182 115 0 177 -35 340 -190 134 -128 196 -168 278 -181 l42 -7 0 57 c0 53 -1
56 -25 56 -47 0 -106 40 -226 156 -66 63 -141 128 -167 145 -144 91 -342 91
-478 -1 -27 -18 -97 -82 -155 -141 -122 -125 -179 -159 -270 -159 -75 0 -131
21 -210 79 -59 43 -67 54 -78 97 -30 120 -131 260 -234 324 l-56 35 -3 1060
-3 1060 -22 41 c-29 54 -101 117 -151 132 -47 14 -125 14 -170 -1z m128 -97
c20 -5 51 -26 70 -45 l35 -36 3 -1089 2 -1089 63 -33 c179 -95 282 -297 248
-487 -41 -231 -230 -391 -461 -391 -232 0 -424 164 -462 396 -31 187 74 390
249 482 l63 33 2 1089 3 1089 35 36 c30 31 69 51 105 54 6 1 26 -4 45 -9z"/>
<path d="M4110 4755 l0 -55 305 0 305 0 0 55 0 55 -305 0 -305 0 0 -55z"/>
<path d="M4120 3624 l0 -57 46 7 c26 3 161 6 300 6 l254 0 0 50 0 50 -300 0
-300 0 0 -56z"/>
<path d="M4110 2505 l0 -55 305 0 305 0 0 55 0 55 -305 0 -305 0 0 -55z"/>
<path d="M1890 1046 c-100 -21 -148 -53 -270 -176 -140 -141 -172 -165 -232
-180 l-48 -12 0 -51 0 -50 49 6 c87 10 144 49 285 192 154 156 190 175 327
175 138 0 218 -41 423 -216 54 -46 129 -99 165 -117 59 -29 74 -32 156 -32
125 0 183 29 328 165 60 56 129 115 155 131 74 47 160 69 269 69 170 0 274
-42 453 -182 207 -161 284 -195 419 -186 110 8 164 40 317 190 157 152 201
178 310 178 127 0 184 -32 364 -205 120 -115 176 -151 255 -162 l45 -6 0 51
c0 49 -1 51 -32 57 -58 13 -89 35 -219 160 -148 141 -224 187 -338 207 -53 9
-87 9 -135 1 -117 -20 -166 -51 -311 -193 -152 -149 -194 -174 -292 -174 -79
1 -155 37 -278 135 -189 151 -296 206 -450 229 -152 23 -323 -10 -440 -85 -30
-19 -103 -79 -162 -135 -59 -55 -128 -110 -153 -122 -104 -51 -219 -17 -360
108 -170 149 -260 204 -377 229 -81 17 -148 18 -223 1z"/>
</g>
</svg>
